<?xml version="1.0" encoding="UTF-8" standalone="no"?>
<!-- Created with Inkscape (http://www.inkscape.org/) -->

<svg
   xmlns:dc="http://purl.org/dc/elements/1.1/"
   xmlns:cc="http://creativecommons.org/ns#"
   xmlns:rdf="http://www.w3.org/1999/02/22-rdf-syntax-ns#"
   xmlns:svg="http://www.w3.org/2000/svg"
   xmlns="http://www.w3.org/2000/svg"
   xmlns:sodipodi="http://sodipodi.sourceforge.net/DTD/sodipodi-0.dtd"
   xmlns:inkscape="http://www.inkscape.org/namespaces/inkscape"
   width="728px"
   height="90px"
   id="svg6003"
   version="1.1"
   inkscape:version="0.48.4 r9939"
   sodipodi:docname="New document 7">
  <defs
     id="defs6005" />
  <sodipodi:namedview
     id="base"
     pagecolor="#ffffff"
     bordercolor="#666666"
     borderopacity="1.0"
     inkscape:pageopacity="0.0"
     inkscape:pageshadow="2"
     inkscape:zoom="0.53033009"
     inkscape:cx="400.88718"
     inkscape:cy="89.103315"
     inkscape:document-units="px"
     inkscape:current-layer="layer1"
     showgrid="false"
     inkscape:window-width="681"
     inkscape:window-height="741"
     inkscape:window-x="0"
     inkscape:window-y="25"
     inkscape:window-maximized="0" />
  <metadata
     id="metadata6008">
    <rdf:RDF>
      <cc:Work
         rdf:about="">
        <dc:format>image/svg+xml</dc:format>
        <dc:type
           rdf:resource="http://purl.org/dc/dcmitype/StillImage" />
        <dc:title></dc:title>
      </cc:Work>
    </rdf:RDF>
  </metadata>
  <g
     id="layer1"
     inkscape:label="Layer 1"
     inkscape:groupmode="layer">
    <path
       inkscape:connector-curvature="0"
       id="path3091"
       style="fill:#100f0d;fill-opacity:1;fill-rule:evenodd;stroke:none"
       d="m 150.13131,39.673403 5.98002,-3.530312 6.33009,-3.239761 6.33271,-3.235392 6.33271,-2.647734 6.3301,-2.649919 6.68017,-2.352813 6.33271,-2.060077 6.6854,-2.060078 6.68278,-1.47242 6.6854,-1.470235 6.68017,-1.179683 7.0407,-0.880394 6.68017,-0.587657 6.68279,-0.589842 13.36557,0 5.98002,0.294921 5.62733,0.587657 5.27726,0.587657 5.27726,0.587658 4.56926,0.884762 4.57711,0.882578 4.57188,1.177499 4.22181,1.177499 3.86912,1.175315 3.86912,1.474604 3.8665,1.470236 3.86912,1.47242 3.52165,1.762971 3.86651,2.060077 3.51904,2.060077 3.86912,2.060078 3.51643,0.29492 3.51904,0.587658 3.16375,1.177499 2.46359,1.767341 2.10829,2.057892 1.40814,2.354998 0.70537,2.94484 -0.35269,3.530312 -4.57449,0.294921 -4.21919,-0.589841 -3.51905,-0.884763 -3.16374,-1.470236 -2.46359,-2.060077 -2.11351,-2.060077 -1.05546,-2.352813 -0.35007,-2.354998 -4.2192,-4.120155 -5.62994,-3.825233 -7.38294,-3.235391 -8.44622,-2.942656 -9.49384,-2.357182 -10.90459,-1.765157 -11.25728,-1.470235 -11.96004,-0.589842 -12.66542,0.294921 -12.66019,0.882578 -13.0155,1.765157 -12.66019,2.649919 -12.66542,3.235391 -11.95743,4.707812 -11.60997,5.592574 -10.90197,6.472967 -2.81628,-0.292736 0,0" />
    <path
       inkscape:connector-curvature="0"
       id="path3093"
       style="fill:#100f0d;fill-opacity:1;fill-rule:evenodd;stroke:none"
       d="m 152.94759,39.966139 7.03024,-5.000547 8.44623,-4.415076 9.49384,-3.825233 10.90459,-2.942655 11.25989,-2.352814 11.95743,-1.472419 12.31273,-0.884763 12.66019,0 12.66542,0.884763 12.66281,1.472419 11.96004,2.647735 11.60735,3.235391 10.90459,4.120155 9.84653,5.297653 8.7963,5.887495 7.38555,7.062809 3.16897,1.175315 3.16635,1.47242 2.46098,2.057892 1.75821,2.060077 1.05284,2.647735 0.35269,2.649919 -0.70276,2.942655 -1.40553,3.237576 -4.21919,-0.884763 -3.87173,-1.472419 -2.81889,-2.055708 -2.45837,-2.062262 -1.76083,-2.649919 -1.05545,-2.352814 -0.35008,-2.647734 0.70277,-2.357183 -2.10829,-4.998363 -4.22442,-5.004917 -6.3301,-4.41289 -8.09092,-4.122339 -9.49384,-3.530313 -10.90459,-2.942655 -11.96004,-2.352813 -12.66542,-1.767341 -13.01288,-0.880394 -13.71826,0 -13.36557,0.587658 -13.36818,1.765156 -13.0155,2.647734 -12.66541,3.530313 -11.25467,5.004917 -10.5519,5.88531 2.81628,-0.884763 0,0" />
    <path
       inkscape:connector-curvature="0"
       id="path3095"
       style="fill:#100f0d;fill-opacity:1;fill-rule:evenodd;stroke:none"
       d="m 141.69031,44.086294 6.33271,-5.000548 8.08831,-4.120154 9.49384,-3.532497 10.55712,-2.647735 11.60736,-1.765156 12.31273,-0.882578 12.66019,-0.297106 13.0155,0.589842 13.01549,1.470236 12.66281,2.354998 12.31273,3.237576 11.96004,3.825233 10.90459,4.707812 9.84653,5.887495 8.44361,6.472967 7.03547,7.357731 3.16374,1.175314 2.81367,1.767341 2.46359,2.060077 1.7556,2.354998 1.06068,2.352814 0,2.942655 -0.70538,2.942655 -1.76344,2.942655 -4.21919,-1.175314 -3.51643,-1.47242 -3.16897,-2.060077 -2.10568,-2.352814 -1.40813,-2.649919 -0.70538,-2.352813 0,-2.652103 0.70538,-2.352814 -2.11091,-5.295469 -4.56927,-5.004917 -6.68539,-4.705626 -8.7963,-4.415076 -10.19922,-3.827418 -11.60735,-3.530312 -12.66281,-2.942655 -13.71826,-2.352814 -13.72087,-1.767341 -14.06833,-0.587657 -14.07356,0 -13.36295,1.175315 -12.66281,2.062261 -11.96004,3.237577 -10.20183,4.41289 -8.79369,5.592574 4.5745,-1.179683 0,0" />
    <path
       inkscape:connector-curvature="0"
       id="path3097"
       style="fill:#100f0d;fill-opacity:1;fill-rule:evenodd;stroke:none"
       d="m 177.21775,19.957395 -6.6854,0.292736 -5.97741,0.587657 -5.98263,1.47242 -5.27465,1.767341 -4.92457,1.762971 -4.2218,1.767341 -3.51643,1.47242 -2.81367,1.175315 4.92457,-3.530313 5.62733,-2.942655 5.62995,-2.647734 5.62472,-1.765157 5.27987,-1.179683 4.92196,-0.587658 4.2218,0.587658 3.16636,1.767341 6.33009,2.352813 -3.86912,-3.825233 -4.92457,-2.060078 -5.62733,-0.587657 -6.6854,0.882578 -7.03286,2.352814 -7.73823,3.237576 -7.74085,4.120154 -8.09093,5.002733 -3.86389,2.649919 -3.87434,2.352813 -3.86912,2.354998 -3.8665,2.354998 -3.87174,2.060077 -3.8665,2.060077 -3.87434,1.765157 -3.86651,1.470235 -4.21919,1.474604 -3.871734,1.465866 -4.221806,0.886948 -3.869118,0.880393 -4.219194,0.589842 -4.219194,0.587657 -8.791075,0 2.455754,0.589842 2.813666,0.294921 5.982634,0 3.519043,-0.294921 3.51643,-0.589842 3.513817,-0.882578 3.871731,-0.880393 4.221806,-1.181869 3.87173,-1.465866 4.57188,-1.474604 4.2192,-1.765156 4.57449,-2.060078 4.21919,-2.057892 4.57189,-2.357183 4.5771,-2.645549 8.79108,-5.004917 8.44361,-3.825234 7.73824,-2.94484 7.38816,-2.057892 6.67756,-1.177499 5.98002,-0.587657 5.62994,0 4.92457,0.292736 -6.33009,-2.352813 0,0" />
    <path
       inkscape:connector-curvature="0"
       id="path3099"
       style="fill:#100f0d;fill-opacity:1;fill-rule:evenodd;stroke:none"
       d="m 363.9987,24.665206 -2.11351,4.415075 -2.10829,4.707812 -2.81628,4.707811 -3.16374,4.412891 -3.87173,4.417259 -4.57189,4.115785 -5.27725,3.534682 -5.62734,3.528128 -7.03024,2.652104 -7.74085,2.354998 -8.44623,1.470235 -9.84652,0.880393 -10.9046,0 -11.96004,-0.880393 -13.36557,-2.062262 -14.42363,-2.942655 -7.38294,-1.762972 -7.03547,-1.767341 -6.33271,-1.765156 -5.98002,-1.767341 -5.62994,-1.47242 -5.62734,-1.760787 -5.27464,-1.76734 -5.27726,-1.765157 -5.27465,-1.76734 -5.62994,-1.762972 -5.62733,-1.767341 -5.98003,-2.060077 -5.98002,-2.060077 -6.68539,-2.060077 -7.38555,-2.060077 -7.73824,-2.354998 -8.79107,-2.647735 -8.7963,-2.354998 -8.441,-2.060077 -8.44362,-2.057892 -8.08831,-1.765157 -8.08831,-1.47242 -7.743461,-1.177499 -7.385548,-1.177499 -7.385548,-0.882578 -6.682785,-0.587657 -6.682784,-0.297105 -6.335322,0 -5.977409,0.297105 -5.632558,0.292736 -4.919345,0.882578 -4.927182,1.177499 -7.735623,3.237577 -5.629946,3.827418 -3.163742,4.117969 -1.055452,4.707812 0.352688,4.709996 2.105678,4.120154 3.519043,3.823049 4.574494,3.239761 2.811054,1.177499 3.521655,1.175314 4.219194,1.175314 4.571881,0.886948 5.627334,0.585472 6.332709,0.589842 14.423633,0 8.441,-0.589842 9.143763,-1.175314 10.204439,-1.47242 10.54929,-2.352813 11.60997,-2.649919 12.31012,-3.532497 13.36818,-4.11797 14.07356,-4.707812 1.40291,1.470236 -4.92457,1.765156 -5.62994,2.060077 -5.97741,1.765156 -6.3301,2.060077 -6.33532,1.765157 -7.03547,2.062261 -6.68279,1.765157 -7.03286,1.47242 -7.03808,1.765156 -7.03286,1.177499 -7.035478,1.470235 -6.682784,0.882578 -6.682785,0.589842 -6.332709,0.585473 -5.977409,0 L 60.786289,55.566363 50.939763,54.386679 42.49615,53.20918 35.460678,51.441839 29.833345,49.386132 25.261463,47.031134 21.74242,43.793557 18.928754,40.26106 17.167926,36.143091 16.46255,31.728015 l 1.40814,-4.120154 3.168967,-4.117969 4.924569,-3.532497 7.030248,-3.237577 8.446225,-2.354998 10.201827,-1.765156 12.307506,-0.882578 6.688009,0 6.682785,0.294921 6.327484,0.587657 6.685397,0.882578 6.685393,1.177499 6.3301,1.177499 6.33271,1.175315 6.3301,1.47242 5.98002,1.47242 5.98263,1.765156 5.26942,1.470235 5.27726,1.47242 4.92718,1.47242 4.5745,1.175314 4.21919,1.177499 3.51643,0.882578 4.57711,1.177499 5.26942,1.47242 5.63255,2.060078 6.68018,2.060077 7.03547,2.352813 7.38816,2.354998 8.09092,2.647734 8.44362,2.649919 8.79107,2.647735 9.14638,2.645549 9.49906,2.652104 9.49384,2.352813 9.49645,2.057893 9.85175,2.062262 9.84914,1.767341 9.84914,1.177499 7.38816,0.589841 6.68279,0.290552 6.68017,0 5.98002,-0.587657 5.98002,-1.175315 5.27726,-1.472419 5.27726,-2.062262 4.92457,-2.352814 4.57449,-3.237576 4.21919,-3.528128 4.2192,-4.417259 3.86912,-4.707812 3.87173,-5.590389 3.51904,-6.180232 3.51904,-6.770073 3.16374,-7.650467 0,10.005465" />
    <path
       inkscape:connector-curvature="0"
       id="path3101"
       style="fill:#100f0d;fill-opacity:1;fill-rule:evenodd;stroke:none"
       d="m 363.9987,48.501369 -4.92457,4.707811 -5.27725,4.11797 -4.92719,3.536866 -5.62733,3.237576 -5.27464,2.64555 -5.62734,2.354998 -5.98002,1.765156 -6.33271,1.47242 -6.33009,0.882578 -6.6854,0.294921 -7.03286,0 -7.38555,-0.589841 -7.74085,-1.1775 -8.441,-1.472419 -8.44361,-2.057893 -9.14638,-2.652103 -9.49906,-2.938287 -9.49384,-2.942655 -9.14637,-2.94484 -8.7963,-3.237576 -8.79108,-2.942655 -8.441,-2.647734 -8.09092,-2.94484 -8.09093,-2.647735 -7.73823,-2.647734 -7.74085,-2.647734 -7.38816,-2.354998 -7.03286,-2.354998 -7.03548,-2.060077 -7.03286,-2.057893 -6.68278,-1.767341 -6.68279,-1.765156 -6.33271,-1.47242 -6.68539,-1.762972 -6.3301,-1.472419 -6.32748,-1.47242 -5.98525,-1.177499 -6.330096,-1.470236 -5.980021,-0.882578 -5.977409,-0.882578 -5.980021,-0.589842 -5.980021,-0.294921 -5.980022,0 -5.629945,0.587658 -5.977409,0.589841 -5.629946,1.47242 -5.627333,1.470236 -5.629945,2.354998 -7.388161,4.120154 -4.569269,4.707811 -1.758215,4.709996 1.058064,4.415076 3.163742,4.705626 5.980021,4.122339 7.735624,3.823049 9.849139,2.942655 5.980021,1.177499 6.330097,0.589842 14.418408,0 7.746074,-0.589842 8.088312,-0.882578 8.088311,-1.175314 8.441,-1.47242 8.09354,-1.767341 7.73823,-1.762972 7.74085,-1.76734 7.38816,-2.060078 6.67756,-2.060077 5.98002,-2.352813 5.62995,-2.060077 4.57711,-2.060077 -3.87435,-1.177499 -2.81628,1.177499 -3.8665,1.470235 -4.92457,2.060077 -5.62733,1.765156 -6.6854,2.060077 -7.38294,2.354998 -7.74085,2.060078 -8.44361,1.765156 -8.441,1.765156 -8.793686,1.470235 -8.793688,0.886948 -8.798913,0.585472 -8.438387,0.294921 -8.090924,-0.589842 -7.738236,-1.177499 -7.385549,-1.760787 -9.146375,-3.532497 -5.980022,-3.825233 -3.866505,-3.827418 -1.405527,-4.120154 0.347463,-3.827418 2.816279,-3.530313 3.869118,-3.235391 5.627333,-2.942655 5.277258,-2.062262 5.624721,-1.765156 5.629945,-1.177499 5.982634,-0.587658 5.977409,-0.587657 11.957429,0 5.985247,0.587657 6.330096,0.882578 5.980021,0.882579 6.332709,1.177499 5.97741,1.177499 6.3301,1.47242 5.98002,1.765156 5.98263,1.470235 5.62733,1.767341 5.62734,1.762972 6.33271,1.76734 6.68017,2.060077 7.38816,2.354999 7.38816,2.352813 7.73562,2.649919 8.09093,2.647734 8.09092,2.647735 8.09093,2.649919 8.44361,2.944839 8.441,2.938286 8.43839,2.652104 8.44622,2.938286 8.0857,2.652104 8.44622,2.944839 7.73824,2.64555 7.73824,2.649919 7.38816,2.057893 7.38555,2.062261 7.03286,1.765157 7.03808,1.177499 6.68279,0.880393 6.68539,0.592026 6.67756,-0.297105 6.33271,-0.589842 6.6854,-1.175314 6.33271,-2.057893 6.68017,-2.652103 6.68279,-3.530313 6.3327,-4.415075 7.03809,-5.295469 6.68278,-6.182416 0,-3.235391" />
    <path
       inkscape:connector-curvature="0"
       id="path3103"
       style="fill:#100f0d;fill-opacity:1;fill-rule:evenodd;stroke:none"
       d="m 166.66323,32.022936 -6.32748,3.825234 -6.68801,3.825233 -7.38555,3.235392 -7.74085,2.94484 -7.73562,2.647734 -8.44362,2.354998 -8.441,2.057892 -8.08831,1.767341 -8.44361,1.470236 -8.093537,1.175314 -7.735623,0.886947 -7.390774,0.585473 -6.674947,0.294921 -6.337934,0 -5.627333,-0.294921 -4.921957,-0.585473 -8.090925,-1.47242 -7.38816,-1.470235 -6.33271,-1.767341 -5.272032,-2.062262 -4.224419,-2.645549 -3.51643,-2.942655 -2.463591,-3.235392 -1.755602,-4.122339 -0.350076,-3.530312 0.350076,-3.532497 1.405527,-3.235392 2.105678,-2.94484 2.816279,-2.942655 3.87173,-2.352813 4.574494,-2.354999 5.272033,-1.765156 5.632558,-1.47242 6.330097,-0.882578 7.03286,-0.587657 7.740849,-0.587657 8.090924,0 8.793688,0.292736 9.143763,0.882578 9.846527,0.882578 10.204437,1.47242 10.90198,1.765156 11.25728,2.060078 11.60735,2.647734 11.96005,2.942655 12.6628,3.532497 12.66542,3.825234 13.36296,4.120154 7.38816,2.354998 6.33271,2.352813 5.62733,1.767341 4.92457,1.762972 4.57188,1.474604 3.86912,1.175315 3.51904,0.882578 3.51905,1.179683 3.16635,0.585473 3.16374,0.884763 3.16636,0.585472 3.51643,0.592027 3.86911,0.585472 3.86651,0.589842 4.57449,0.589842 5.27987,0.587657 5.97741,0.589842 5.98002,0.294921 12.31012,0 6.33271,-0.884763 6.3301,-0.882578 6.33271,-1.470235 5.97741,-1.767341 5.63255,-2.352813 5.62734,-2.942656 5.27464,-3.532497 4.92457,-4.117969 4.57188,-4.712181 3.87173,-5.295469 3.51643,-5.88531 2.81106,-6.767889 2.11351,6.767889 2.46098,5.88531 2.81628,5.295469 2.81628,4.712181 2.81105,4.117969 2.4636,2.942655 2.1109,2.354999 1.75821,1.470235 0,3.235391 -1.75821,-1.470235 -2.46359,-2.647734 -2.81628,-3.532497 -3.16374,-3.825234 -3.16897,-3.825233 -2.81105,-4.120154 -2.11091,-3.530313 -1.05806,-3.235391 -0.70276,1.470235 -1.40553,1.765156 -1.75822,2.354998 -2.46098,2.647735 -3.16635,2.942655 -3.51643,3.235391 -4.21919,2.942656 -4.92719,2.94484 -5.62994,2.942655 -5.97741,2.645549 -7.03547,2.357183 -7.38816,1.767341 -8.441,1.175314 -9.14638,0.585473 -9.84914,0 -10.5519,-0.880394 -10.55452,-1.470235 -10.19921,-2.062262 -9.49384,-2.352813 -9.50168,-2.647734 -9.14637,-2.647735 -8.79108,-2.94484 -9.14899,-2.942655 -8.78846,-3.235391 -9.49906,-2.942656 -9.49907,-2.944839 -10.20182,-2.942656 -10.54929,-2.647734 -10.90459,-2.354998 -11.96266,-2.060077 -13.01288,-1.765156 -13.720871,-1.47242 -13.713032,-0.882578 -11.960042,-0.587658 -10.20444,0 -9.143763,0.587658 -7.738237,0.589841 -6.680172,1.177499 -5.635171,1.47242 -4.219193,1.468051 -3.51643,1.767341 -2.816279,2.060077 -2.108291,2.060077 -1.058064,2.060077 -0.700151,2.057893 -0.3553,2.357182 0,2.060078 0.3553,2.057892 1.758215,3.827418 2.813667,3.530312 4.221806,3.237577 5.274645,2.647734 6.332709,2.352813 6.682785,2.062262 7.738236,1.175315 7.738236,0.589841 10.201828,0 5.627333,-0.294921 6.332709,-0.589841 6.330097,-0.585473 6.685397,-0.884763 7.035473,-0.882578 7.38294,-1.470235 7.03808,-1.47242 7.73562,-1.765156 7.39078,-2.060077 7.38555,-2.354998 7.38816,-2.647735 7.03286,-3.237576 7.38816,-3.235391 6.68017,-3.827418 2.46359,0.589841 0,0" />
    <path
       inkscape:connector-curvature="0"
       id="path3105"
       style="fill:#ffffff;fill-opacity:1;fill-rule:evenodd;stroke:none"
       d="m 323.89677,33.493172 2.11352,0.294921 2.46098,0.294921 2.46097,0.587657 2.81367,0.589842 2.46359,1.470235 1.75822,1.765156 1.75821,2.649919 0.70276,3.235392 -2.46097,0 -2.81367,-0.587658 -3.16374,-0.587657 -2.81367,-1.179683 -2.46359,-1.470236 -1.76083,-1.765156 -1.05545,-2.354998 0,-2.942655" />
    <path
       inkscape:connector-curvature="0"
       id="path3107"
       style="fill:#ffffff;fill-opacity:1;fill-rule:evenodd;stroke:none"
       d="m 321.08572,52.328787 2.1109,0.294921 1.7556,0.585472 2.11352,0.589842 2.1109,0.882578 1.40553,1.470236 1.05545,2.352813 0.70276,3.239761 -0.35007,4.117969 -2.81367,-1.175314 -2.81628,-1.47242 -2.46359,-1.765156 -2.46098,-2.060077 -1.40814,-1.765157 -1.05545,-2.057892 0.35269,-1.767341 1.76083,-1.470235 0,0" />
    <path
       inkscape:connector-curvature="0"
       id="path3109"
       style="fill:#ffffff;fill-opacity:1;fill-rule:evenodd;stroke:none"
       d="m 309.82321,63.511751 3.16897,0.880393 2.46359,0.884763 2.10829,1.177499 1.76083,1.470235 0.70276,2.057893 0.70015,2.357182 0,2.647735 -0.70015,3.530312 -2.81628,-1.47242 -3.16113,-1.470235 -2.81889,-1.762972 -2.10829,-2.062262 -1.40553,-2.057892 -0.70537,-2.062262 0.70537,-2.062261 2.10568,-2.055708 0,0" />
    <path
       inkscape:connector-curvature="0"
       id="path3111"
       style="fill:#100f0d;fill-opacity:1;fill-rule:evenodd;stroke:none"
       d="m 578.21618,39.673403 -5.98002,-3.530312 -6.3301,-3.239761 -6.33532,-3.235392 -6.33271,-2.647734 -6.32749,-2.649919 -6.68539,-2.352813 -6.6854,-2.060077 -6.67756,-2.060078 -6.68801,-1.47242 -6.68278,-1.470235 -6.68018,-1.179683 -6.68801,-0.880394 -6.68017,-0.587657 -6.68017,-0.589842 -19.35082,0 -5.98002,0.294921 -5.27203,0.587657 -5.27987,0.587657 -4.57188,0.587658 -4.57188,1.179683 -4.22181,0.882578 -4.21919,1.175315 -4.2192,1.47242 -3.87434,1.47242 -3.51382,1.765156 -3.87434,1.767341 -3.51382,1.762971 -3.87434,2.060077 -3.51643,2.060077 -3.86651,2.060078 -3.51904,0.29492 -3.51643,0.587658 -3.16374,1.177499 -2.46621,1.767341 -2.10567,2.057892 -1.40814,2.354998 -0.70538,2.94484 0.35269,3.530312 4.57188,0.294921 3.86651,-0.589841 3.52165,-0.884763 3.16636,-1.470236 2.46097,-2.060077 2.1083,-2.060077 1.05545,-2.352813 0.35007,-2.354998 4.2192,-4.120155 5.63517,-3.825233 7.38293,-3.235391 8.79369,-2.942656 9.50168,-2.357182 10.89936,-1.765157 11.25467,-1.470235 11.96265,-0.589842 12.66281,0.294921 12.66281,0.882578 13.0181,1.765157 12.66281,2.649919 12.6628,3.235391 11.96005,4.707812 11.60735,5.592574 10.90459,6.472967 2.81367,-0.292736 0,0" />
    <path
       inkscape:connector-curvature="0"
       id="path3113"
       style="fill:#100f0d;fill-opacity:1;fill-rule:evenodd;stroke:none"
       d="m 575.40251,39.966139 -7.03808,-5.000547 -8.43839,-4.415076 -9.84914,-3.825233 -10.55713,-2.942655 -11.60474,-2.352814 -11.96004,-1.472419 -12.31273,-0.884763 -12.6602,0 -12.66803,0.884763 -12.3075,1.472419 -12.31273,2.647735 -11.60736,3.235391 -10.5519,4.120155 -9.84653,5.297653 -8.7963,5.887495 -7.38816,7.062809 -3.16635,1.175315 -3.16636,1.47242 -2.46098,2.057892 -1.76082,2.060077 -1.40553,2.647735 -0.3553,2.649919 0.70799,2.942655 1.40552,3.237576 4.5745,-0.884763 3.51643,-1.472419 3.16635,-2.055708 2.45837,-2.062262 1.40814,-2.649919 1.05806,-2.352814 0.34747,-2.647734 -0.70016,-2.357183 2.11091,-4.998363 4.22442,-5.004917 6.32748,-4.41289 8.09354,-4.122339 9.49645,-3.530313 10.90459,-2.942655 11.96004,-2.352813 12.65758,-1.767341 13.01811,-0.880394 13.71826,0 13.71825,0.587658 13.36557,1.765156 13.0155,2.647734 12.31012,3.530313 11.60735,5.004917 10.55713,5.88531 -2.81367,-0.884763 0,0" />
    <path
       inkscape:connector-curvature="0"
       id="path3115"
       style="fill:#100f0d;fill-opacity:1;fill-rule:evenodd;stroke:none"
       d="m 586.30188,44.086294 -6.32749,-5.000548 -8.09092,-4.120154 -9.49907,-3.532497 -10.5519,-2.647735 -11.60735,-1.765156 -11.95743,-0.882578 -12.6602,-0.297106 -13.02071,0.589842 -13.01289,1.470236 -13.01027,2.354998 -12.31534,3.237576 -11.60996,3.825233 -10.90198,4.707812 -9.84914,5.887495 -8.79108,6.472967 -7.03808,7.357731 -3.16636,1.175314 -2.81366,1.767341 -2.11091,2.060077 -1.76082,2.354998 -1.05546,2.352814 -0.35268,2.942655 0.70537,2.942655 1.75822,2.942655 4.2218,-1.175314 3.87173,-1.47242 2.81106,-2.060077 2.46098,-2.352814 1.40814,-2.649919 0.70537,-2.352813 0,-2.652103 -0.70537,-2.352814 2.1109,-5.295469 4.21919,-5.004917 6.6854,-4.705626 8.79107,-4.415076 10.20183,-3.827418 11.96266,-3.530312 12.6628,-2.942655 13.36557,-2.352814 13.71565,-1.767341 14.07617,-0.587657 14.06833,0 13.36818,1.175315 13.0155,2.062261 11.60474,3.237577 10.5519,4.41289 8.79369,5.592574 -4.92718,-1.179683 0,0" />
    <path
       inkscape:connector-curvature="0"
       id="path3117"
       style="fill:#100f0d;fill-opacity:1;fill-rule:evenodd;stroke:none"
       d="m 551.13235,19.957395 6.32487,0.292736 6.33271,0.587657 5.62995,1.47242 5.62994,1.767341 4.57188,1.762971 4.5745,1.767341 3.51382,1.47242 2.81889,1.175315 -4.92718,-3.530313 -5.62734,-2.942655 -5.62733,-2.647734 -5.62995,-1.765157 -5.27987,-1.179683 -4.91934,-0.587658 -4.22181,0.587658 -3.16374,1.767341 -6.68278,2.352813 3.8665,-3.825233 4.92196,-2.060078 5.98002,-0.587657 6.33271,0.882578 7.39077,2.352814 7.38555,3.237576 7.73562,4.120154 8.09354,5.002733 3.86389,2.649919 3.87173,2.352813 3.87174,2.354998 3.86911,2.354998 3.86651,2.060077 3.87434,2.060077 3.86651,1.765157 4.21919,1.470235 3.86912,1.474604 3.87173,1.465866 4.21919,0.886948 3.87171,0.880393 4.2192,0.589842 4.21919,0.587657 8.7963,0 -2.46359,0.589842 -2.81367,0.294921 -5.98002,0 -3.51904,-0.294921 -3.51382,-0.589842 -3.51902,-0.882578 -3.86912,-0.880393 -4.2218,-1.181869 -3.87173,-1.465866 -4.56927,-1.474604 -4.2192,-1.765156 -4.57188,-2.060078 -4.22442,-2.057892 -4.57188,-2.357183 -4.57711,-2.645549 -8.79107,-5.004917 -8.441,-3.825234 -7.73824,-2.94484 -7.03808,-2.057892 -6.68017,-1.177499 -5.98003,-0.587657 -5.62994,0 -5.27203,0.292736 6.68278,-2.352813 0,0" />
    <path
       inkscape:connector-curvature="0"
       id="path3119"
       style="fill:#100f0d;fill-opacity:1;fill-rule:evenodd;stroke:none"
       d="m 363.9987,24.665206 2.10568,4.415075 2.11091,4.707812 2.81889,4.707811 3.51381,4.412891 3.87174,4.417259 4.56926,4.115785 4.9298,3.534682 5.97741,3.528128 7.03286,2.652104 7.74085,2.354998 8.44622,1.470235 9.84392,0.880393 10.90197,0 11.96266,-0.880393 13.36557,-2.062262 14.42363,-2.942655 7.38816,-1.762972 7.03286,-1.767341 6.32749,-1.765156 5.98002,-1.767341 5.63256,-1.47242 5.62994,-1.760787 5.27465,-1.76734 5.27464,-1.765157 5.27987,-1.76734 5.62734,-1.762972 5.62733,-1.767341 5.62733,-2.060077 6.32749,-2.060077 6.68801,-2.060077 7.03286,-2.060077 7.74346,-2.354998 8.78846,-2.647735 8.79369,-2.354998 8.441,-2.060077 8.44622,-2.057892 8.08831,-1.765157 7.74085,-1.47242 7.73563,-1.177499 7.74082,-1.177499 7.03286,-0.882578 7.03548,-0.587657 6.68539,-0.297105 6.3301,0 5.62733,0.297105 5.62734,0.292736 5.27725,0.882578 4.5745,1.177499 7.73823,3.237577 5.62473,3.827418 3.16896,4.117969 1.40553,4.707812 -0.35008,4.709996 -2.1109,4.120154 -3.51904,3.823049 -4.5745,3.239761 -2.81366,1.177499 -3.51643,1.175314 -4.2192,1.175314 -4.92718,0.886948 -5.27203,0.585472 -6.33532,0.589842 -14.42102,0 -8.441,-0.589842 -9.14636,-1.175314 -10.20183,-1.47242 -10.54929,-2.352813 -11.60996,-2.649919 -12.31273,-3.532497 -13.0155,-4.11797 -14.07094,-4.707812 -1.40553,1.470236 4.92718,1.765156 5.62734,2.060077 5.98002,1.765156 6.33009,2.060077 6.33271,1.765157 6.68279,2.062261 7.03286,1.765157 7.03547,1.47242 6.6854,1.765156 7.03286,1.177499 7.03808,1.470235 6.68015,0.882578 6.6854,0.589842 5.98002,0.585473 5.98002,0 5.62995,-0.290552 9.84914,-1.179684 8.43839,-1.177499 7.03547,-1.767341 5.98263,-2.055707 4.5745,-2.354998 3.51381,-3.237577 2.46621,-3.532497 1.75299,-4.117969 0.70537,-4.415076 -1.40552,-4.120154 -3.16636,-4.117969 -4.92457,-3.532497 -6.68278,-3.237577 -8.44361,-2.354998 -10.20183,-1.765156 -12.31012,-0.882578 -6.6854,0 -6.32748,0.294921 -6.6854,0.587657 -6.68015,0.882578 -6.69062,1.177499 -6.32749,1.177499 -6.3327,1.175315 -6.32749,1.47242 -5.98263,1.47242 -5.62734,1.765156 -5.62733,1.470235 -5.27987,1.47242 -4.91934,1.47242 -4.5745,1.175314 -3.8665,1.177499 -3.87173,0.882578 -4.57711,1.177499 -4.92196,1.47242 -5.98002,2.060078 -6.33271,2.060077 -7.03286,2.352813 -7.73823,2.354998 -7.73824,2.647734 -8.44361,2.649919 -9.14638,2.647735 -8.7963,2.645549 -9.49384,2.652104 -9.49645,2.352813 -9.85175,2.057893 -9.84653,2.062262 -9.84914,1.767341 -9.84652,1.177499 -7.39078,0.589841 -6.67756,0.290552 -6.33532,0 -6.33271,-0.587657 -5.62994,-1.175315 -5.62734,-1.472419 -4.91934,-2.062262 -4.9298,-2.352814 -4.57188,-3.237576 -4.57188,-3.528128 -3.86912,-4.417259 -4.22442,-4.707812 -3.51643,-5.590389 -3.8665,-6.180232 -3.16897,-6.770073 -3.51382,-7.650467 0,10.005465" />
    <path
       inkscape:connector-curvature="0"
       id="path3121"
       style="fill:#100f0d;fill-opacity:1;fill-rule:evenodd;stroke:none"
       d="m 363.9987,48.501369 4.92196,4.707811 5.27726,4.11797 5.27464,3.536866 5.27726,3.237576 5.62733,2.64555 5.62995,2.354998 5.98002,1.765156 6.33271,1.47242 6.33271,0.882578 6.68278,0.294921 7.03025,0 7.38816,-0.589841 7.74085,-1.1775 8.44361,-1.472419 8.441,-2.057893 9.13854,-2.652103 9.50429,-2.938287 9.49384,-2.942655 9.14899,-2.94484 8.79107,-3.237576 8.7963,-2.942655 8.441,-2.647734 8.08831,-2.94484 8.09615,-2.647735 7.73302,-2.647734 7.74084,-2.647734 7.38555,-2.354998 7.03547,-2.354998 7.03548,-2.060077 7.03286,-2.057893 6.68801,-1.767341 6.68017,-1.765156 6.33532,-1.47242 6.32749,-1.762972 6.33532,-1.472419 6.32748,-1.47242 5.98002,-1.177499 6.33271,-1.470236 5.98261,-0.882578 5.98003,-0.882578 5.97479,-0.589842 5.98002,-0.294921 5.62734,0 5.98002,0.587658 5.62733,0.589841 5.98002,1.47242 5.62995,1.470236 5.62472,2.354998 7.39077,4.120154 4.57188,4.707811 1.76083,4.709996 -1.05284,4.415076 -3.52165,4.705626 -5.62472,4.122339 -8.09615,3.823049 -9.84653,2.942655 -5.62995,1.177499 -6.68017,0.589842 -14.42363,0 -7.74085,-0.589842 -7.73299,-0.882578 -8.09354,-1.175314 -8.44361,-1.47242 -8.0857,-1.767341 -7.73824,-1.762972 -7.74346,-1.76734 -7.03547,-2.060078 -6.68017,-2.060077 -6.33271,-2.352813 -5.27465,-2.060077 -4.5771,-2.060077 3.87173,-1.177499 2.81367,1.177499 3.87173,1.470235 4.92195,2.060077 5.62734,1.765156 6.68539,2.060077 7.38816,2.354998 7.73563,2.060078 8.09353,1.765156 8.43839,1.765156 8.7963,1.470235 8.79628,0.886948 8.79369,0.585472 8.43839,0.294921 8.09092,-0.589842 7.74085,-1.177499 7.38555,-1.760787 9.14115,-3.532497 5.98263,-3.825233 3.86912,-3.827418 1.41075,-4.120154 -0.35269,-3.827418 -2.46359,-3.530313 -4.22442,-3.235391 -5.62733,-2.942655 -5.27464,-2.062262 -5.62734,-1.765156 -5.62733,-1.177499 -5.98002,-0.587658 -5.98264,-0.587657 -11.95743,0 -5.98002,0.587657 -6.33007,0.882578 -5.98002,0.882579 -6.33532,1.177499 -5.9748,1.177499 -5.98002,1.47242 -5.98002,1.765156 -5.98002,1.470235 -5.62995,1.767341 -5.62733,1.762972 -6.33271,1.76734 -6.68017,2.060077 -7.38817,2.354999 -7.39077,2.352813 -7.73823,2.649919 -8.0857,2.647734 -8.08832,2.647735 -8.09615,2.649919 -8.44099,2.944839 -8.441,2.938286 -8.44362,2.652104 -8.441,2.938286 -8.09092,2.652104 -8.441,2.944839 -7.73824,2.64555 -7.73823,2.354998 -7.38816,2.352814 -7.38816,2.062261 -7.38817,1.470236 -7.03286,1.177499 -6.68278,0.880393 -7.03025,0.294921 -6.68801,-0.294921 -6.68278,-0.585472 -6.33271,-1.47242 -6.68279,-2.060077 -6.33271,-2.649919 -6.68278,-3.530313 -6.33271,-4.11797 -6.68017,-5.004917 -6.68279,-5.887495 0,-3.235391" />
    <path
       inkscape:connector-curvature="0"
       id="path3123"
       style="fill:#100f0d;fill-opacity:1;fill-rule:evenodd;stroke:none"
       d="m 561.68425,32.022936 5.9748,3.825234 7.0407,3.825233 7.03286,3.235392 7.73562,2.94484 8.09354,2.647734 8.09092,2.354998 8.43839,2.057892 8.09354,1.767341 8.441,1.470236 7.73823,1.175314 7.73822,0.886947 7.38816,0.585473 7.03547,0.294921 6.33271,0 5.27465,-0.294921 4.92718,-0.585473 8.0857,-1.47242 7.38816,-1.470235 6.33009,-1.767341 5.27987,-2.062262 4.5745,-2.645549 3.51382,-2.942655 2.46097,-3.235392 1.75822,-4.122339 0.3553,-5.002732 -1.40814,-5.002733 -3.51904,-4.120154 -5.27465,-3.823049 -6.68017,-3.23976 -8.79891,-2.352814 -9.84653,-1.767341 -11.60474,-0.880393 -5.98263,-0.294921 -6.33533,0.294921 -6.68017,0.292736 -7.03286,0.294921 -7.03545,0.880394 -7.74346,0.884762 -7.73563,1.177499 -8.09092,1.470236 -8.441,1.470235 -8.441,2.060077 -8.79369,2.062262 -9.14637,2.352813 -9.49907,2.354998 -9.49906,2.942655 -9.84653,2.942656 -9.85175,3.237576 -7.38555,2.354998 -6.33271,2.352813 -5.62733,1.767341 -4.92196,1.762972 -4.57449,1.474604 -3.86651,1.175315 -3.52165,0.882578 -3.51904,1.179683 -3.16375,0.585473 -3.51643,0.884763 -3.16635,0.585472 -3.51643,0.592027 -3.51904,0.585472 -4.2192,0.589842 -4.5771,0.589842 -4.92196,0.587657 -5.98002,0.589842 -5.98002,0.294921 -12.66281,0 -6.33271,-0.884763 -6.32748,-0.882578 -5.98002,-1.470235 -5.98002,-1.767341 -5.98003,-2.352813 -5.62733,-2.942656 -5.27726,-3.532497 -4.92457,-4.117969 -4.57449,-4.712181 -3.86651,-5.295469 -3.51904,-5.88531 -2.81367,-6.767889 -2.1109,6.767889 -2.46359,5.88531 -2.81628,5.295469 -2.81105,4.712181 -2.81367,4.117969 -2.46359,2.942655 -2.1109,2.354999 -1.75561,1.470235 0,3.235391 1.75561,-1.470235 2.46098,-2.647734 3.17157,-3.532497 3.16113,-3.825234 2.81367,-3.825233 2.81367,-4.120154 2.11351,-3.530313 1.05545,-3.235391 0.70538,1.470235 1.40814,1.765156 2.10568,2.354998 2.46881,2.647735 2.81106,2.942655 3.8665,3.235391 4.2192,2.942656 4.92718,2.94484 5.27464,2.942655 6.33533,2.645549 7.03547,2.357183 7.38555,1.767341 8.43838,1.175314 9.14638,0.585473 9.85175,0 10.54929,-0.880394 10.55452,-1.470235 10.20183,-2.062262 9.49383,-2.352813 9.50429,-2.647734 8.79108,-2.647735 9.14115,-2.94484 8.79369,-2.942655 9.14898,-3.235391 9.14116,-2.942656 9.50167,-2.944839 10.20183,-2.942656 10.54929,-2.647734 10.90459,-2.354998 11.96266,-2.060077 13.01549,-1.765156 13.71826,-1.47242 13.71823,-0.882578 11.95482,-0.587658 10.20183,0 9.14899,0.587658 7.73301,0.589841 6.68801,1.177499 5.62733,1.47242 4.22181,1.468051 3.51904,1.767341 2.81367,2.060077 2.10829,2.060077 1.05283,2.060077 0.70538,2.057893 0.35269,2.357182 0,2.060078 -0.35269,2.057892 -1.75821,3.827418 -2.81628,3.530312 -4.57189,3.237577 -5.27464,2.647734 -5.98002,2.352813 -7.03547,2.062262 -7.38816,1.175315 -7.73824,0.589841 -10.19922,0 -5.62994,-0.294921 -5.9748,-0.589841 -6.68801,-0.585473 -6.67754,-0.884763 -7.03808,-0.882578 -7.03547,-1.470235 -7.38555,-1.47242 -7.38555,-1.765156 -7.39339,-2.060077 -7.38554,-2.354998 -7.38555,-2.647735 -7.03286,-3.237576 -7.38816,-3.235391 -6.68279,-3.827418 -2.46098,0.589841 0,0" />
    <path
       inkscape:connector-curvature="0"
       id="path3125"
       style="fill:#ffffff;fill-opacity:1;fill-rule:evenodd;stroke:none"
       d="m 404.45071,33.493172 -2.11351,0.294921 -2.46098,0.294921 -2.46359,0.587657 -2.81367,0.589842 -2.46098,1.470235 -1.76083,1.765156 -1.7556,2.649919 -0.70276,3.235392 2.45836,0 3.16636,-0.587658 2.81367,-0.587657 2.81366,-1.179683 2.46621,-1.470236 1.7556,-1.765156 1.05806,-2.354998 0,-2.942655" />
    <path
       inkscape:connector-curvature="0"
       id="path3127"
       style="fill:#ffffff;fill-opacity:1;fill-rule:evenodd;stroke:none"
       d="m 407.26177,52.328787 -2.11091,0.294921 -1.75821,0.585472 -2.1109,0.589842 -2.11091,0.882578 -1.40552,1.470236 -1.40814,2.352813 -0.35008,3.239761 0,4.117969 2.81628,-1.175314 2.81367,-1.47242 2.81366,-1.765156 2.45837,-2.060077 1.41075,-1.765157 1.05284,-2.057892 -0.3553,-1.767341 -1.7556,-1.470235 0,0" />
    <path
       inkscape:connector-curvature="0"
       id="path3129"
       style="fill:#ffffff;fill-opacity:1;fill-rule:evenodd;stroke:none"
       d="m 418.52166,63.511751 -3.16636,0.880393 -2.46359,0.884763 -2.11351,1.177499 -1.40553,1.470235 -1.05284,2.057893 -0.70799,2.357182 0,2.647735 0.70799,3.530312 2.81105,-1.47242 3.16897,-1.470235 2.81628,-1.762972 2.10568,-2.062262 1.40553,-2.057892 0.70798,-2.062262 -0.70798,-2.062261 -2.10568,-2.055708 0,0" />
  </g>
</svg>
